<mxfile host="app.diagrams.net" modified="2024-07-07T07:09:10.157Z" agent="Mozilla/5.0 (Macintosh; Intel Mac OS X 10_15_7) AppleWebKit/537.36 (KHTML, like Gecko) Chrome/126.0.0.0 Safari/537.36" etag="U2D7Udx3fPuwKaI7AfHN" version="24.6.4" type="device">
  <diagram name="Page-1" id="DZZyudLNVJ1_RkR0QpsN">
    <mxGraphModel dx="1696" dy="2827" grid="1" gridSize="10" guides="1" tooltips="1" connect="1" arrows="1" fold="1" page="1" pageScale="1" pageWidth="827" pageHeight="1169" math="0" shadow="0">
      <root>
        <mxCell id="0" />
        <mxCell id="1" parent="0" />
        <mxCell id="1tVdazxrQmwfK73V5RVe-5" value="" style="whiteSpace=wrap;html=1;strokeColor=#01016F;strokeWidth=5;movable=1;resizable=1;rotatable=1;deletable=1;editable=1;locked=0;connectable=1;" parent="1" vertex="1">
          <mxGeometry x="-120" y="-1180" width="927" height="1080" as="geometry" />
        </mxCell>
        <mxCell id="ipk0zcvL52JoTC9bnH9U-82" style="edgeStyle=orthogonalEdgeStyle;rounded=0;orthogonalLoop=1;jettySize=auto;html=1;strokeWidth=10;endArrow=none;endFill=0;" parent="1" source="ipk0zcvL52JoTC9bnH9U-55" target="ipk0zcvL52JoTC9bnH9U-85" edge="1">
          <mxGeometry relative="1" as="geometry">
            <mxPoint x="465" y="-315" as="targetPoint" />
          </mxGeometry>
        </mxCell>
        <mxCell id="ipk0zcvL52JoTC9bnH9U-1" value="" style="group;aspect=fixed;" parent="1" vertex="1" connectable="0">
          <mxGeometry x="-10" y="-1021.24" width="126" height="140" as="geometry" />
        </mxCell>
        <mxCell id="ipk0zcvL52JoTC9bnH9U-2" value="" style="shape=note;whiteSpace=wrap;html=1;backgroundOutline=1;darkOpacity=0.05;rounded=1;size=20;strokeWidth=2;aspect=fixed;" parent="ipk0zcvL52JoTC9bnH9U-1" vertex="1">
          <mxGeometry x="6.3" width="100.8" height="127.27272727272727" as="geometry" />
        </mxCell>
        <mxCell id="ipk0zcvL52JoTC9bnH9U-3" value="&lt;font data-font-src=&quot;https://fonts.googleapis.com/css?family=Maven+Pro&quot; face=&quot;Maven Pro&quot; color=&quot;#ffffff&quot;&gt;&lt;b&gt;&lt;font style=&quot;font-size: 20px;&quot;&gt;Fastq&lt;/font&gt;&lt;/b&gt;&lt;/font&gt;" style="rounded=1;whiteSpace=wrap;html=1;strokeWidth=2;fillColor=#000000;aspect=fixed;" parent="ipk0zcvL52JoTC9bnH9U-1" vertex="1">
          <mxGeometry y="50.90909090909091" width="113.39999999999999" height="50.90909090909091" as="geometry" />
        </mxCell>
        <mxCell id="ipk0zcvL52JoTC9bnH9U-4" value="" style="shape=note;whiteSpace=wrap;html=1;backgroundOutline=1;darkOpacity=0.05;rounded=1;size=20;strokeWidth=2;aspect=fixed;" parent="ipk0zcvL52JoTC9bnH9U-1" vertex="1">
          <mxGeometry x="12.6" y="6.363636363636363" width="100.8" height="127.27272727272727" as="geometry" />
        </mxCell>
        <mxCell id="ipk0zcvL52JoTC9bnH9U-5" value="&lt;font data-font-src=&quot;https://fonts.googleapis.com/css?family=Maven+Pro&quot; face=&quot;Maven Pro&quot; color=&quot;#ffffff&quot;&gt;&lt;b&gt;&lt;font style=&quot;font-size: 20px;&quot;&gt;Fastq&lt;/font&gt;&lt;/b&gt;&lt;/font&gt;" style="rounded=1;whiteSpace=wrap;html=1;strokeWidth=2;fillColor=#000000;aspect=fixed;" parent="ipk0zcvL52JoTC9bnH9U-1" vertex="1">
          <mxGeometry x="6.3" y="57.27272727272727" width="113.39999999999999" height="50.90909090909091" as="geometry" />
        </mxCell>
        <mxCell id="ipk0zcvL52JoTC9bnH9U-6" value="" style="shape=note;whiteSpace=wrap;html=1;backgroundOutline=1;darkOpacity=0.05;rounded=1;size=20;strokeWidth=2;aspect=fixed;" parent="ipk0zcvL52JoTC9bnH9U-1" vertex="1">
          <mxGeometry x="18.9" y="12.727272727272727" width="100.8" height="127.27272727272727" as="geometry" />
        </mxCell>
        <mxCell id="ipk0zcvL52JoTC9bnH9U-7" value="&lt;font data-font-src=&quot;https://fonts.googleapis.com/css?family=Maven+Pro&quot; face=&quot;Maven Pro&quot; color=&quot;#ffffff&quot;&gt;&lt;b&gt;&lt;font style=&quot;font-size: 22px;&quot;&gt;.fasta&lt;/font&gt;&lt;/b&gt;&lt;/font&gt;" style="rounded=1;whiteSpace=wrap;html=1;strokeWidth=2;fillColor=#000000;aspect=fixed;" parent="ipk0zcvL52JoTC9bnH9U-1" vertex="1">
          <mxGeometry x="12.6" y="63.63636363636363" width="113.39999999999999" height="50.90909090909091" as="geometry" />
        </mxCell>
        <mxCell id="ipk0zcvL52JoTC9bnH9U-18" value="" style="shape=curlyBracket;whiteSpace=wrap;html=1;rounded=1;flipH=0;labelPosition=right;verticalLabelPosition=middle;align=left;verticalAlign=middle;strokeWidth=2;strokeColor=#000000;size=0.2857142857142857;" parent="1" vertex="1">
          <mxGeometry x="587" y="-1041" width="70" height="179.52" as="geometry" />
        </mxCell>
        <mxCell id="ipk0zcvL52JoTC9bnH9U-27" value="" style="shape=curlyBracket;whiteSpace=wrap;html=1;rounded=1;flipH=1;labelPosition=right;verticalLabelPosition=middle;align=left;verticalAlign=middle;strokeWidth=2;strokeColor=#000000;" parent="1" vertex="1">
          <mxGeometry x="130" y="-1044.36" width="47" height="191" as="geometry" />
        </mxCell>
        <mxCell id="ipk0zcvL52JoTC9bnH9U-30" value="" style="group;fillColor=default;" parent="1" vertex="1" connectable="0">
          <mxGeometry x="667" y="-911" width="76" height="110" as="geometry" />
        </mxCell>
        <mxCell id="ipk0zcvL52JoTC9bnH9U-19" value="&lt;font style=&quot;font-size: 15px;&quot; color=&quot;#ffffff&quot;&gt;csv&lt;/font&gt;" style="shadow=0;dashed=0;html=1;strokeColor=none;fillColor=#4BBF64;labelPosition=center;verticalLabelPosition=middle;verticalAlign=middle;align=center;outlineConnect=0;shape=mxgraph.veeam.2d.file;aspect=fixed;" parent="ipk0zcvL52JoTC9bnH9U-30" vertex="1">
          <mxGeometry width="56" height="77.3" as="geometry" />
        </mxCell>
        <mxCell id="ipk0zcvL52JoTC9bnH9U-28" value="&lt;font style=&quot;font-size: 15px;&quot; color=&quot;#ffffff&quot;&gt;csv&lt;/font&gt;" style="shadow=0;dashed=0;html=1;strokeColor=#FFFFFF;fillColor=#4BBF64;labelPosition=center;verticalLabelPosition=middle;verticalAlign=middle;align=center;outlineConnect=0;shape=mxgraph.veeam.2d.file;aspect=fixed;" parent="ipk0zcvL52JoTC9bnH9U-30" vertex="1">
          <mxGeometry x="10" y="11.305241521068858" width="56" height="77.3" as="geometry" />
        </mxCell>
        <mxCell id="ipk0zcvL52JoTC9bnH9U-29" value="&lt;font style=&quot;font-size: 20px;&quot; color=&quot;#ffffff&quot;&gt;csv&lt;/font&gt;" style="shadow=0;dashed=0;html=1;strokeColor=#FFFFFF;fillColor=#4BBF64;labelPosition=center;verticalLabelPosition=middle;verticalAlign=middle;align=center;outlineConnect=0;shape=mxgraph.veeam.2d.file;aspect=fixed;" parent="ipk0zcvL52JoTC9bnH9U-30" vertex="1">
          <mxGeometry x="20" y="22.610483042137716" width="56" height="77.3" as="geometry" />
        </mxCell>
        <mxCell id="ipk0zcvL52JoTC9bnH9U-31" value="&lt;font style=&quot;font-size: 20px;&quot; color=&quot;#ffffff&quot;&gt;csv&lt;/font&gt;" style="shadow=0;dashed=0;html=1;strokeColor=none;fillColor=#4BBF64;labelPosition=center;verticalLabelPosition=middle;verticalAlign=middle;align=center;outlineConnect=0;shape=mxgraph.veeam.2d.file;aspect=fixed;" parent="1" vertex="1">
          <mxGeometry x="677" y="-1061" width="65.2" height="90" as="geometry" />
        </mxCell>
        <mxCell id="ipk0zcvL52JoTC9bnH9U-32" value="&lt;font style=&quot;font-size: 20px;&quot;&gt;.fasta subsets&amp;nbsp;&lt;/font&gt;&lt;div style=&quot;font-size: 20px;&quot;&gt;&lt;font style=&quot;font-size: 20px;&quot;&gt;definition&lt;/font&gt;&lt;/div&gt;" style="text;html=1;align=center;verticalAlign=middle;whiteSpace=wrap;rounded=0;fontSize=15;" parent="1" vertex="1">
          <mxGeometry x="650" y="-959.14" width="140" height="48.14" as="geometry" />
        </mxCell>
        <mxCell id="ipk0zcvL52JoTC9bnH9U-34" value="" style="shape=image;verticalLabelPosition=bottom;labelBackgroundColor=default;verticalAlign=top;aspect=fixed;imageAspect=0;image=https://repository-images.githubusercontent.com/9052236/ecd9481e-f4b3-4324-b832-a08ee1d99564;imageBorder=default;" parent="1" vertex="1">
          <mxGeometry x="324" y="-1140" width="180" height="90" as="geometry" />
        </mxCell>
        <mxCell id="ipk0zcvL52JoTC9bnH9U-50" value="" style="group;aspect=fixed;" parent="1" vertex="1" connectable="0">
          <mxGeometry x="396" y="-765" width="127.27" height="140" as="geometry" />
        </mxCell>
        <mxCell id="ipk0zcvL52JoTC9bnH9U-51" value="" style="shape=note;whiteSpace=wrap;html=1;backgroundOutline=1;darkOpacity=0.05;rounded=1;size=20;strokeWidth=2;aspect=fixed;" parent="ipk0zcvL52JoTC9bnH9U-50" vertex="1">
          <mxGeometry x="6.3635" width="101.816" height="127.27" as="geometry" />
        </mxCell>
        <mxCell id="ipk0zcvL52JoTC9bnH9U-52" value="&lt;font data-font-src=&quot;https://fonts.googleapis.com/css?family=Maven+Pro&quot; face=&quot;Maven Pro&quot; color=&quot;#ffffff&quot;&gt;&lt;b&gt;&lt;font style=&quot;font-size: 20px;&quot;&gt;Fastq&lt;/font&gt;&lt;/b&gt;&lt;/font&gt;" style="rounded=1;whiteSpace=wrap;html=1;strokeWidth=2;fillColor=#01016F;aspect=fixed;" parent="ipk0zcvL52JoTC9bnH9U-50" vertex="1">
          <mxGeometry y="50.90909090909091" width="114.54299999999999" height="50.908" as="geometry" />
        </mxCell>
        <mxCell id="ipk0zcvL52JoTC9bnH9U-53" value="" style="shape=note;whiteSpace=wrap;html=1;backgroundOutline=1;darkOpacity=0.05;rounded=1;size=20;strokeWidth=2;aspect=fixed;" parent="ipk0zcvL52JoTC9bnH9U-50" vertex="1">
          <mxGeometry x="12.727" y="6.363636363636363" width="101.816" height="127.27" as="geometry" />
        </mxCell>
        <mxCell id="ipk0zcvL52JoTC9bnH9U-54" value="&lt;font data-font-src=&quot;https://fonts.googleapis.com/css?family=Maven+Pro&quot; face=&quot;Maven Pro&quot; color=&quot;#ffffff&quot;&gt;&lt;b&gt;&lt;font style=&quot;font-size: 20px;&quot;&gt;Fastq&lt;/font&gt;&lt;/b&gt;&lt;/font&gt;" style="rounded=1;whiteSpace=wrap;html=1;strokeWidth=2;fillColor=#01016F;aspect=fixed;" parent="ipk0zcvL52JoTC9bnH9U-50" vertex="1">
          <mxGeometry x="6.3635" y="57.27272727272727" width="114.54299999999999" height="50.908" as="geometry" />
        </mxCell>
        <mxCell id="ipk0zcvL52JoTC9bnH9U-55" value="" style="shape=note;whiteSpace=wrap;html=1;backgroundOutline=1;darkOpacity=0.05;rounded=1;size=20;strokeWidth=2;aspect=fixed;" parent="ipk0zcvL52JoTC9bnH9U-50" vertex="1">
          <mxGeometry x="19.0905" y="12.727272727272727" width="101.816" height="127.27" as="geometry" />
        </mxCell>
        <mxCell id="ipk0zcvL52JoTC9bnH9U-56" value="&lt;font style=&quot;font-size: 18px;&quot; data-font-src=&quot;https://fonts.googleapis.com/css?family=Maven+Pro&quot; face=&quot;Maven Pro&quot; color=&quot;#ffffff&quot;&gt;&lt;b style=&quot;&quot;&gt;&lt;font style=&quot;font-size: 18px;&quot;&gt;train&lt;/font&gt;&lt;/b&gt;&lt;/font&gt;&lt;div style=&quot;font-size: 18px;&quot;&gt;&lt;font style=&quot;font-size: 18px;&quot; data-font-src=&quot;https://fonts.googleapis.com/css?family=Maven+Pro&quot; face=&quot;Maven Pro&quot; color=&quot;#ffffff&quot;&gt;&lt;b style=&quot;&quot;&gt;&lt;font style=&quot;font-size: 18px;&quot;&gt;.fasta&lt;/font&gt;&lt;/b&gt;&lt;/font&gt;&lt;/div&gt;" style="rounded=1;whiteSpace=wrap;html=1;strokeWidth=2;fillColor=#01016F;aspect=fixed;" parent="ipk0zcvL52JoTC9bnH9U-50" vertex="1">
          <mxGeometry x="12.727" y="63.63636363636363" width="114.54299999999999" height="50.908" as="geometry" />
        </mxCell>
        <mxCell id="ipk0zcvL52JoTC9bnH9U-57" value="" style="group;aspect=fixed;" parent="1" vertex="1" connectable="0">
          <mxGeometry x="172" y="-765" width="127.27" height="140" as="geometry" />
        </mxCell>
        <mxCell id="ipk0zcvL52JoTC9bnH9U-58" value="" style="shape=note;whiteSpace=wrap;html=1;backgroundOutline=1;darkOpacity=0.05;rounded=1;size=20;strokeWidth=2;" parent="ipk0zcvL52JoTC9bnH9U-57" vertex="1">
          <mxGeometry x="6.3635" width="101.816" height="127.27272727272727" as="geometry" />
        </mxCell>
        <mxCell id="ipk0zcvL52JoTC9bnH9U-59" value="&lt;font data-font-src=&quot;https://fonts.googleapis.com/css?family=Maven+Pro&quot; face=&quot;Maven Pro&quot; color=&quot;#ffffff&quot;&gt;&lt;b&gt;&lt;font style=&quot;font-size: 20px;&quot;&gt;Fastq&lt;/font&gt;&lt;/b&gt;&lt;/font&gt;" style="rounded=1;whiteSpace=wrap;html=1;strokeWidth=2;fillColor=#000000;" parent="ipk0zcvL52JoTC9bnH9U-57" vertex="1">
          <mxGeometry y="50.90909090909091" width="114.54299999999999" height="50.90909090909091" as="geometry" />
        </mxCell>
        <mxCell id="ipk0zcvL52JoTC9bnH9U-60" value="" style="shape=note;whiteSpace=wrap;html=1;backgroundOutline=1;darkOpacity=0.05;rounded=1;size=20;strokeWidth=2;" parent="ipk0zcvL52JoTC9bnH9U-57" vertex="1">
          <mxGeometry x="12.727" y="6.363636363636363" width="101.816" height="127.27272727272727" as="geometry" />
        </mxCell>
        <mxCell id="ipk0zcvL52JoTC9bnH9U-61" value="&lt;font data-font-src=&quot;https://fonts.googleapis.com/css?family=Maven+Pro&quot; face=&quot;Maven Pro&quot; color=&quot;#ffffff&quot;&gt;&lt;b&gt;&lt;font style=&quot;font-size: 20px;&quot;&gt;Fastq&lt;/font&gt;&lt;/b&gt;&lt;/font&gt;" style="rounded=1;whiteSpace=wrap;html=1;strokeWidth=2;fillColor=#000000;" parent="ipk0zcvL52JoTC9bnH9U-57" vertex="1">
          <mxGeometry x="6.3635" y="57.27272727272727" width="114.54299999999999" height="50.90909090909091" as="geometry" />
        </mxCell>
        <mxCell id="ipk0zcvL52JoTC9bnH9U-62" value="" style="shape=note;whiteSpace=wrap;html=1;backgroundOutline=1;darkOpacity=0.05;rounded=1;size=20;strokeWidth=2;" parent="ipk0zcvL52JoTC9bnH9U-57" vertex="1">
          <mxGeometry x="19.0905" y="12.727272727272727" width="101.816" height="127.27272727272727" as="geometry" />
        </mxCell>
        <mxCell id="ipk0zcvL52JoTC9bnH9U-63" value="&lt;font style=&quot;font-size: 18px;&quot; data-font-src=&quot;https://fonts.googleapis.com/css?family=Maven+Pro&quot; face=&quot;Maven Pro&quot; color=&quot;#ffffff&quot;&gt;&lt;b style=&quot;&quot;&gt;&lt;font style=&quot;font-size: 18px;&quot;&gt;test&lt;/font&gt;&lt;/b&gt;&lt;/font&gt;&lt;div style=&quot;font-size: 18px;&quot;&gt;&lt;font style=&quot;font-size: 18px;&quot; data-font-src=&quot;https://fonts.googleapis.com/css?family=Maven+Pro&quot; face=&quot;Maven Pro&quot; color=&quot;#ffffff&quot;&gt;&lt;b style=&quot;&quot;&gt;&lt;font style=&quot;font-size: 18px;&quot;&gt;.fasta&lt;/font&gt;&lt;/b&gt;&lt;/font&gt;&lt;/div&gt;" style="rounded=1;whiteSpace=wrap;html=1;strokeWidth=2;fillColor=#000000;" parent="ipk0zcvL52JoTC9bnH9U-57" vertex="1">
          <mxGeometry x="12.727" y="63.63636363636363" width="114.54299999999999" height="50.90909090909091" as="geometry" />
        </mxCell>
        <mxCell id="ipk0zcvL52JoTC9bnH9U-64" style="edgeStyle=orthogonalEdgeStyle;rounded=1;orthogonalLoop=1;jettySize=auto;html=1;exitX=0.5;exitY=0;exitDx=0;exitDy=0;exitPerimeter=0;curved=0;strokeWidth=2;endArrow=none;endFill=0;startArrow=oval;startFill=1;" parent="1" source="ipk0zcvL52JoTC9bnH9U-51" target="ipk0zcvL52JoTC9bnH9U-29" edge="1">
          <mxGeometry relative="1" as="geometry" />
        </mxCell>
        <mxCell id="ipk0zcvL52JoTC9bnH9U-68" value="" style="group;fontSize=16;aspect=fixed;" parent="1" vertex="1" connectable="0">
          <mxGeometry x="375" y="-619.995" width="181" height="176.985" as="geometry" />
        </mxCell>
        <mxCell id="ipk0zcvL52JoTC9bnH9U-69" value="&lt;font style=&quot;font-size: 20px;&quot;&gt;create_schema&lt;/font&gt;&lt;div style=&quot;line-height: 160%; font-size: 20px;&quot;&gt;&lt;div style=&quot;line-height: 160%;&quot;&gt;&lt;font style=&quot;font-size: 20px;&quot;&gt;(chewBBACA)&lt;/font&gt;&lt;/div&gt;&lt;/div&gt;" style="rounded=1;whiteSpace=wrap;html=1;strokeWidth=2;strokeColor=#01016f;" parent="ipk0zcvL52JoTC9bnH9U-68" vertex="1">
          <mxGeometry y="13.620000000000001" width="180" height="70.38000000000001" as="geometry" />
        </mxCell>
        <mxCell id="ipk0zcvL52JoTC9bnH9U-79" value="&lt;font style=&quot;font-size: 20px;&quot;&gt;allele_call_train&lt;/font&gt;&lt;div style=&quot;line-height: 160%; font-size: 20px;&quot;&gt;&lt;div style=&quot;line-height: 160%;&quot;&gt;&lt;font style=&quot;font-size: 20px;&quot;&gt;(chewBBACA)&lt;/font&gt;&lt;/div&gt;&lt;/div&gt;" style="rounded=1;whiteSpace=wrap;html=1;strokeWidth=2;strokeColor=#01016F;aspect=fixed;" parent="ipk0zcvL52JoTC9bnH9U-68" vertex="1">
          <mxGeometry x="1" y="104.985" width="180" height="72" as="geometry" />
        </mxCell>
        <mxCell id="ipk0zcvL52JoTC9bnH9U-83" style="edgeStyle=orthogonalEdgeStyle;rounded=0;orthogonalLoop=1;jettySize=auto;html=1;entryX=0.98;entryY=0.086;entryDx=0;entryDy=0;curved=1;exitX=0.999;exitY=0.379;exitDx=0;exitDy=0;strokeWidth=2;entryPerimeter=0;exitPerimeter=0;" parent="ipk0zcvL52JoTC9bnH9U-68" source="ipk0zcvL52JoTC9bnH9U-69" target="ipk0zcvL52JoTC9bnH9U-79" edge="1">
          <mxGeometry relative="1" as="geometry">
            <Array as="points">
              <mxPoint x="180" y="39" />
              <mxPoint x="215" y="39" />
              <mxPoint x="215" y="111" />
            </Array>
          </mxGeometry>
        </mxCell>
        <mxCell id="ipk0zcvL52JoTC9bnH9U-84" value="Schema&amp;nbsp;&lt;div style=&quot;margin-top: 0px; font-size: 15px;&quot;&gt;definition&lt;/div&gt;" style="edgeLabel;html=1;align=center;verticalAlign=middle;resizable=0;points=[];fontSize=15;" parent="ipk0zcvL52JoTC9bnH9U-83" vertex="1" connectable="0">
          <mxGeometry x="-0.0177" y="-1" relative="1" as="geometry">
            <mxPoint x="41" as="offset" />
          </mxGeometry>
        </mxCell>
        <mxCell id="ipk0zcvL52JoTC9bnH9U-71" value="&lt;font style=&quot;font-size: 18px;&quot; color=&quot;#ffffff&quot;&gt;.trn&lt;/font&gt;" style="shadow=0;dashed=0;html=1;strokeColor=none;fillColor=#d8031c;labelPosition=center;verticalLabelPosition=middle;verticalAlign=middle;align=center;outlineConnect=0;shape=mxgraph.veeam.2d.file;aspect=fixed;" parent="1" vertex="1">
          <mxGeometry x="677" y="-718" width="56" height="77.3" as="geometry" />
        </mxCell>
        <mxCell id="ipk0zcvL52JoTC9bnH9U-74" value="&lt;font style=&quot;font-size: 20px;&quot;&gt;Prodigal prediction&lt;/font&gt;" style="text;html=1;align=center;verticalAlign=middle;whiteSpace=wrap;rounded=0;fontSize=15;" parent="1" vertex="1">
          <mxGeometry x="660" y="-635" width="90" height="40" as="geometry" />
        </mxCell>
        <mxCell id="ipk0zcvL52JoTC9bnH9U-85" value="&lt;font style=&quot;font-size: 20px;&quot;&gt;extract_cgMLST&lt;/font&gt;&lt;div style=&quot;line-height: 160%; font-size: 20px;&quot;&gt;&lt;div style=&quot;line-height: 160%;&quot;&gt;&lt;font style=&quot;font-size: 20px;&quot;&gt;(chewBBACA)&lt;/font&gt;&lt;/div&gt;&lt;/div&gt;" style="rounded=1;whiteSpace=wrap;html=1;strokeWidth=2;strokeColor=#01016F;fontSize=16;aspect=fixed;" parent="1" vertex="1">
          <mxGeometry x="375" y="-406" width="180" height="72" as="geometry" />
        </mxCell>
        <mxCell id="ipk0zcvL52JoTC9bnH9U-87" value="&lt;font style=&quot;font-size: 15px;&quot;&gt;Alleles&lt;/font&gt;" style="edgeStyle=orthogonalEdgeStyle;rounded=0;orthogonalLoop=1;jettySize=auto;html=1;exitX=1;exitY=0.75;exitDx=0;exitDy=0;entryX=1.016;entryY=0.18;entryDx=0;entryDy=0;curved=1;strokeWidth=2;entryPerimeter=0;" parent="1" source="ipk0zcvL52JoTC9bnH9U-79" target="ipk0zcvL52JoTC9bnH9U-85" edge="1">
          <mxGeometry x="0.0087" y="40" relative="1" as="geometry">
            <Array as="points">
              <mxPoint x="590" y="-461" />
              <mxPoint x="590" y="-393" />
            </Array>
            <mxPoint as="offset" />
          </mxGeometry>
        </mxCell>
        <mxCell id="ipk0zcvL52JoTC9bnH9U-91" value="" style="group;fontSize=16;strokeColor=none;" parent="1" vertex="1" connectable="0">
          <mxGeometry x="162" y="-415.67499999999995" width="150" height="91.35" as="geometry" />
        </mxCell>
        <mxCell id="ipk0zcvL52JoTC9bnH9U-92" value="&lt;font style=&quot;font-size: 16px;&quot;&gt;allele_review&lt;/font&gt;&lt;div style=&quot;line-height: 160%; font-size: 16px;&quot;&gt;&lt;div style=&quot;line-height: 160%;&quot;&gt;&lt;font style=&quot;font-size: 16px;&quot;&gt;(chewBBACA)&lt;/font&gt;&lt;/div&gt;&lt;/div&gt;" style="rounded=1;whiteSpace=wrap;html=1;strokeWidth=2;strokeColor=#01016F;" parent="ipk0zcvL52JoTC9bnH9U-91" vertex="1">
          <mxGeometry y="11.35499999999999" width="150" height="60" as="geometry" />
        </mxCell>
        <mxCell id="ipk0zcvL52JoTC9bnH9U-93" style="edgeStyle=orthogonalEdgeStyle;rounded=0;orthogonalLoop=1;jettySize=auto;html=1;strokeWidth=10;endArrow=none;endFill=0;entryX=0.5;entryY=0;entryDx=0;entryDy=0;exitX=0.45;exitY=1.003;exitDx=0;exitDy=0;exitPerimeter=0;" parent="1" target="ipk0zcvL52JoTC9bnH9U-92" edge="1" source="ipk0zcvL52JoTC9bnH9U-62">
          <mxGeometry relative="1" as="geometry">
            <mxPoint x="475" y="-305" as="targetPoint" />
            <mxPoint x="240" y="-620" as="sourcePoint" />
          </mxGeometry>
        </mxCell>
        <mxCell id="ipk0zcvL52JoTC9bnH9U-17" style="edgeStyle=orthogonalEdgeStyle;rounded=0;orthogonalLoop=1;jettySize=auto;html=1;endArrow=none;endFill=0;strokeWidth=2;strokeColor=#000000;entryX=0;entryY=0.5;entryDx=0;entryDy=0;" parent="1" source="ipk0zcvL52JoTC9bnH9U-8" target="ipk0zcvL52JoTC9bnH9U-11" edge="1">
          <mxGeometry relative="1" as="geometry">
            <mxPoint x="567" y="-949.6500000000001" as="targetPoint" />
          </mxGeometry>
        </mxCell>
        <mxCell id="ipk0zcvL52JoTC9bnH9U-8" value="&lt;font style=&quot;font-size: 20px;&quot; color=&quot;#ffffff&quot;&gt;csv&lt;/font&gt;" style="shadow=0;dashed=0;html=1;strokeColor=none;fillColor=#4BBF64;labelPosition=center;verticalLabelPosition=middle;verticalAlign=middle;align=center;outlineConnect=0;shape=mxgraph.veeam.2d.file;aspect=fixed;" parent="1" vertex="1">
          <mxGeometry x="197" y="-993.8600000000001" width="65.2" height="90" as="geometry" />
        </mxCell>
        <mxCell id="ipk0zcvL52JoTC9bnH9U-15" value="" style="group;aspect=fixed;" parent="1" vertex="1" connectable="0">
          <mxGeometry x="390" y="-998.655" width="180.62" height="110" as="geometry" />
        </mxCell>
        <mxCell id="ipk0zcvL52JoTC9bnH9U-11" value="&lt;font style=&quot;font-size: 20px;&quot;&gt;input_check&lt;/font&gt;&lt;div style=&quot;font-size: 20px;&quot;&gt;&lt;font style=&quot;font-size: 20px;&quot;&gt;split_subsets&lt;/font&gt;&lt;/div&gt;" style="rounded=1;whiteSpace=wrap;html=1;strokeWidth=2;strokeColor=#000000;align=left;spacingLeft=11;aspect=fixed;" parent="ipk0zcvL52JoTC9bnH9U-15" vertex="1">
          <mxGeometry y="13.673234811165834" width="180.62" height="72.2495894909688" as="geometry" />
        </mxCell>
        <mxCell id="ipk0zcvL52JoTC9bnH9U-13" value="" style="shape=image;verticalLabelPosition=bottom;labelBackgroundColor=default;verticalAlign=top;aspect=fixed;imageAspect=0;image=https://upload.wikimedia.org/wikipedia/commons/thumb/c/c3/Python-logo-notext.svg/1200px-Python-logo-notext.svg.png;" parent="ipk0zcvL52JoTC9bnH9U-15" vertex="1">
          <mxGeometry x="132.45466666666667" y="26.702244116037207" width="42.144666666666666" height="46.190554666666664" as="geometry" />
        </mxCell>
        <mxCell id="1tVdazxrQmwfK73V5RVe-19" style="edgeStyle=orthogonalEdgeStyle;rounded=1;orthogonalLoop=1;jettySize=auto;html=1;curved=0;endArrow=oval;endFill=1;strokeWidth=2;" parent="1" source="ipk0zcvL52JoTC9bnH9U-29" edge="1">
          <mxGeometry relative="1" as="geometry">
            <Array as="points">
              <mxPoint x="715" y="-790" />
              <mxPoint x="225" y="-790" />
              <mxPoint x="225" y="-769" />
            </Array>
            <mxPoint x="225" y="-770" as="targetPoint" />
          </mxGeometry>
        </mxCell>
        <mxCell id="ipk0zcvL52JoTC9bnH9U-66" value="&lt;font style=&quot;font-size: 20px;&quot;&gt;query channel&lt;/font&gt;" style="text;html=1;align=center;verticalAlign=middle;whiteSpace=wrap;rounded=0;fillColor=default;strokeColor=default;fontSize=15;" parent="1" vertex="1">
          <mxGeometry x="580" y="-807.7" width="100" height="47.7" as="geometry" />
        </mxCell>
        <mxCell id="1tVdazxrQmwfK73V5RVe-20" style="edgeStyle=orthogonalEdgeStyle;rounded=0;orthogonalLoop=1;jettySize=auto;html=1;endArrow=oval;endFill=1;strokeWidth=2;" parent="1" source="ipk0zcvL52JoTC9bnH9U-85" edge="1">
          <mxGeometry relative="1" as="geometry">
            <mxPoint x="310" y="-375" as="targetPoint" />
          </mxGeometry>
        </mxCell>
        <mxCell id="1tVdazxrQmwfK73V5RVe-21" value="&lt;font style=&quot;font-size: 15px;&quot;&gt;cgMLST&lt;/font&gt;&lt;div style=&quot;font-size: 15px;&quot;&gt;&lt;font style=&quot;font-size: 15px;&quot;&gt;schema&lt;/font&gt;&lt;/div&gt;" style="edgeLabel;html=1;align=center;verticalAlign=middle;resizable=0;points=[];" parent="1tVdazxrQmwfK73V5RVe-20" vertex="1" connectable="0">
          <mxGeometry x="0.1513" y="-1" relative="1" as="geometry">
            <mxPoint x="6" y="-24" as="offset" />
          </mxGeometry>
        </mxCell>
        <mxCell id="1tVdazxrQmwfK73V5RVe-22" value="" style="group" parent="1" vertex="1" connectable="0">
          <mxGeometry x="90" y="-340.00000000000006" width="570" height="265.16" as="geometry" />
        </mxCell>
        <mxCell id="1tVdazxrQmwfK73V5RVe-7" value="" style="group" parent="1tVdazxrQmwfK73V5RVe-22" vertex="1" connectable="0">
          <mxGeometry x="41" width="510" height="265.16" as="geometry" />
        </mxCell>
        <mxCell id="ipk0zcvL52JoTC9bnH9U-95" value="" style="shape=curlyBracket;whiteSpace=wrap;html=1;rounded=1;flipH=0;labelPosition=right;verticalLabelPosition=middle;align=left;verticalAlign=middle;strokeWidth=2;strokeColor=#000000;size=0.2857142857142857;rotation=-90;" parent="1tVdazxrQmwfK73V5RVe-7" vertex="1">
          <mxGeometry x="222" y="-214.51" width="43.84" height="479.67" as="geometry" />
        </mxCell>
        <mxCell id="1tVdazxrQmwfK73V5RVe-6" value="&lt;font style=&quot;font-size: 15px;&quot;&gt;All iterations&lt;/font&gt;" style="text;html=1;align=center;verticalAlign=middle;whiteSpace=wrap;rounded=0;fontSize=16;" parent="1tVdazxrQmwfK73V5RVe-7" vertex="1">
          <mxGeometry x="194.60526315789474" width="121.6842105263158" height="29.99999999999997" as="geometry" />
        </mxCell>
        <mxCell id="1tVdazxrQmwfK73V5RVe-17" value="" style="shape=image;verticalLabelPosition=bottom;labelBackgroundColor=default;verticalAlign=top;aspect=fixed;imageAspect=0;image=https://www.ebi.ac.uk/sites/ebi.ac.uk/files/groups/external_relations/images/highlights/UniProt_highlight.jpg;imageBorder=none;clipPath=inset(2.5% 18.33% 5.83% 0%);" parent="1tVdazxrQmwfK73V5RVe-7" vertex="1">
          <mxGeometry x="329" y="171.08000000000004" width="76.25" height="34.234693877551024" as="geometry" />
        </mxCell>
        <mxCell id="1tVdazxrQmwfK73V5RVe-12" value="recursive_search" style="rounded=1;whiteSpace=wrap;html=1;strokeWidth=2;strokeColor=#000000;align=left;spacingLeft=11;fontSize=16;" parent="1tVdazxrQmwfK73V5RVe-22" vertex="1">
          <mxGeometry x="210.5" y="59.58000000000004" width="150" height="60" as="geometry" />
        </mxCell>
        <mxCell id="1tVdazxrQmwfK73V5RVe-10" value="" style="group" parent="1tVdazxrQmwfK73V5RVe-22" vertex="1" connectable="0">
          <mxGeometry x="360" y="69.33000000000004" width="87" height="40.5" as="geometry" />
        </mxCell>
        <mxCell id="1tVdazxrQmwfK73V5RVe-9" value="&lt;span style=&quot;background-color: rgb(255, 255, 255);&quot;&gt;BL&lt;/span&gt;AST" style="text;html=1;align=right;verticalAlign=middle;whiteSpace=wrap;rounded=0;fontSize=16;strokeColor=#306a9c;strokeWidth=1;perimeterSpacing=2;fillColor=#FFFFFF;" parent="1tVdazxrQmwfK73V5RVe-10" vertex="1">
          <mxGeometry width="87" height="40" as="geometry" />
        </mxCell>
        <mxCell id="1tVdazxrQmwfK73V5RVe-8" value="" style="shape=image;verticalLabelPosition=bottom;labelBackgroundColor=default;verticalAlign=top;aspect=fixed;imageAspect=0;image=https://upload.wikimedia.org/wikipedia/commons/thumb/0/07/US-NLM-NCBI-Logo.svg/1200px-US-NLM-NCBI-Logo.svg.png;" parent="1tVdazxrQmwfK73V5RVe-10" vertex="1">
          <mxGeometry width="32.81" height="40.5" as="geometry" />
        </mxCell>
        <mxCell id="1tVdazxrQmwfK73V5RVe-14" value="annotation_QC" style="rounded=1;whiteSpace=wrap;html=1;strokeWidth=2;strokeColor=#000000;align=left;spacingLeft=11;fontSize=16;" parent="1tVdazxrQmwfK73V5RVe-22" vertex="1">
          <mxGeometry x="210.5" y="156.33000000000004" width="150" height="60" as="geometry" />
        </mxCell>
        <mxCell id="1tVdazxrQmwfK73V5RVe-16" style="edgeStyle=orthogonalEdgeStyle;rounded=0;orthogonalLoop=1;jettySize=auto;html=1;endArrow=oval;endFill=1;" parent="1tVdazxrQmwfK73V5RVe-22" source="1tVdazxrQmwfK73V5RVe-12" target="1tVdazxrQmwfK73V5RVe-14" edge="1">
          <mxGeometry relative="1" as="geometry" />
        </mxCell>
        <mxCell id="OkzQEzSb03D9OOaDTp1F-2" style="edgeStyle=orthogonalEdgeStyle;rounded=0;orthogonalLoop=1;jettySize=auto;html=1;entryX=0.872;entryY=0.017;entryDx=0;entryDy=0;entryPerimeter=0;curved=1;strokeColor=#D8031C;strokeWidth=2;endArrow=oval;endFill=1;" edge="1" parent="1" source="ipk0zcvL52JoTC9bnH9U-71" target="ipk0zcvL52JoTC9bnH9U-69">
          <mxGeometry relative="1" as="geometry" />
        </mxCell>
      </root>
    </mxGraphModel>
  </diagram>
</mxfile>
